# File created by Blade
# Date/Time:  Wed Jan 21 16:09:38 2015
# Frame Rate: 120.000 fps
#------------------------------------------------------
:FULLY-SPECIFIED
:DEGREES
527
root 11.989380 33.083918 -21.549414 -190.559545 74.591491 -254.074105
Spine 67.341464 -12.941675 2.128358
Head -35.737386 -4.768795 7.654964
LeftShoulder -6.760776 -34.989853 22.139375
LeftArm -37.197463 -6.508367 -20.898796
LeftForeArm -38.047707 0.000000 -4.999153
LeftHand -10.176944 -0.000000 0.889299
LeftHandThumb1 -26.253704 0.000000 33.147579
RightShoulder -10.551250 -1.050714 -12.588788
RightArm -40.899895 46.852444 13.602733
RightForeArm 15.319165 -0.000000 10.594054
RightHand -20.340045 -0.000000 -16.327320
RightHandThumb1 -24.326973 -0.000000 -32.862282
LeftUpLeg -39.263499 -13.073103 -17.941220
LeftLeg -15.354738 -0.000000 0.000000
LeftFoot -6.677747 28.834488 16.288454
LeftToeBase -139.692743 -0.000000 0.000000
RightUpLeg -87.070417 -9.134984 -8.706497
RightLeg -2.259919 -0.000000 0.000000
RightFoot 9.906988 -26.217525 0.888240
RightToeBase 29.020021 -0.000000 -0.000000
528
root 11.974215 33.083685 -21.556074 -190.770103 74.541486 -254.182480
Spine 67.229400 -12.947749 2.107416
Head -35.742635 -4.779771 7.649951
LeftShoulder -6.785851 -34.782888 22.132748
LeftArm -37.160897 -6.662719 -20.940515
LeftForeArm -38.192588 -0.000000 -5.052615
LeftHand -10.265220 -0.000000 0.820593
LeftHandThumb1 -26.253704 0.000000 33.147579
RightShoulder -10.586764 -1.008847 -12.606507
RightArm -40.995768 46.828313 13.617724
RightForeArm 15.372505 0.000000 10.591672
RightHand -20.464662 0.000000 -16.309307
RightHandThumb1 -24.326973 -0.000000 -32.862282
LeftUpLeg -39.194718 -13.142740 -17.970248
LeftLeg -15.310346 -0.000000 0.000000
LeftFoot -6.662077 28.889186 16.307205
LeftToeBase -139.668231 -0.000000 0.000000
RightUpLeg -87.032939 -9.171895 -8.746958
RightLeg -2.172294 -0.000000 0.000000
RightFoot 9.904664 -26.235431 0.930180
RightToeBase 28.922519 -0.000000 -0.000000
529
root 11.957777 33.083606 -21.564391 -190.937032 74.465568 -254.270246
Spine 67.065803 -12.994218 2.076280
Head -35.682364 -4.820717 7.627308
LeftShoulder -6.745828 -34.748867 22.100518
LeftArm -37.302784 -6.721533 -20.842754
LeftForeArm -38.243986 0.000000 -5.059918
LeftHand -10.236886 0.000000 0.396371
LeftHandThumb1 -26.253704 0.000000 33.147579
RightShoulder -10.612894 -1.062413 -12.623073
RightArm -41.026507 46.924314 13.668396
RightForeArm 15.476990 -0.000000 10.521836
RightHand -20.415087 -0.000000 -16.285323
RightHandThumb1 -24.326973 -0.000000 -32.862282
LeftUpLeg -39.138318 -13.290848 -17.957487
LeftLeg -15.294157 -0.000000 0.000000
LeftFoot -6.596615 29.000214 16.283748
LeftToeBase -139.695294 -0.000000 0.000000
RightUpLeg -87.022694 -9.246420 -8.784093
RightLeg -2.072564 -0.000000 0.000000
RightFoot 9.872281 -26.191017 0.980512
RightToeBase 28.881609 -0.000000 -0.000000
530
root 11.936238 33.082117 -21.575532 -191.050281 74.395071 -254.371378
Spine 66.812936 -13.040573 2.080090
Head -35.671040 -4.847970 7.589996
LeftShoulder -6.800957 -34.661364 22.092464
LeftArm -37.333648 -6.789260 -20.856063
LeftForeArm -38.307809 -0.000000 -5.085899
LeftHand -10.281456 -0.000000 0.464832
LeftHandThumb1 -26.253704 0.000000 33.147579
RightShoulder -10.710373 -1.165087 -12.610606
RightArm -40.978305 47.068254 13.695132
RightForeArm 15.480864 -0.000000 10.421327
RightHand -20.428536 -0.000000 -16.243038
RightHandThumb1 -24.326973 -0.000000 -32.862282
LeftUpLeg -39.183687 -13.422703 -17.971077
LeftLeg -15.211679 -0.000000 0.000000
LeftFoot -6.587633 29.094400 16.351777
LeftToeBase -139.676331 -0.000000 0.000000
RightUpLeg -87.105550 -9.334061 -8.790335
RightLeg -1.963351 -0.000000 0.000000
RightFoot 9.892133 -26.206513 1.096191
RightToeBase 29.034098 -0.000000 -0.000000
531
root 11.928263 33.082935 -21.581508 -191.243608 74.381164 -254.435708
Spine 66.726517 -13.005988 2.069988
Head -35.642421 -4.936441 7.623414
LeftShoulder -6.823442 -34.683891 22.125198
LeftArm -37.416255 -6.871268 -20.822968
LeftForeArm -38.335953 -0.000000 -5.139059
LeftHand -10.319275 -0.000000 0.635570
LeftHandThumb1 -26.253704 0.000000 33.147579
RightShoulder -10.706819 -1.161543 -12.591460
RightArm -41.038285 47.046613 13.721668
RightForeArm 15.600256 -0.000000 10.310164
RightHand -20.408687 -0.000000 -16.110954
RightHandThumb1 -24.326973 -0.000000 -32.862282
LeftUpLeg -39.095196 -13.452259 -17.983106
LeftLeg -15.161164 -0.000000 0.000000
LeftFoot -6.581830 29.161698 16.382975
LeftToeBase -139.657588 -0.000000 0.000000
RightUpLeg -87.021439 -9.326358 -8.829961
RightLeg -1.884429 -0.000000 0.000000
RightFoot 9.917527 -26.246722 1.023559
RightToeBase 28.949479 -0.000000 -0.000000
532
root 11.918363 33.084020 -21.589789 -191.432153 74.350627 -254.518642
Spine 66.619557 -13.022978 2.003199
Head -35.593577 -4.944793 7.627743
LeftShoulder -6.852394 -34.665627 22.132081
LeftArm -37.505612 -6.835763 -20.824674
LeftForeArm -38.364357 0.000000 -5.253769
LeftHand -10.303220 -0.000000 0.409028
LeftHandThumb1 -26.253704 0.000000 33.147579
RightShoulder -10.682177 -1.105653 -12.610262
RightArm -41.121853 47.037955 13.718195
RightForeArm 15.689403 -0.000000 10.246326
RightHand -20.425479 0.000000 -16.046940
RightHandThumb1 -24.326973 -0.000000 -32.862282
LeftUpLeg -39.029322 -13.511095 -17.997054
LeftLeg -15.107362 -0.000000 0.000000
LeftFoot -6.570742 29.242990 16.411539
LeftToeBase -139.707051 -0.000000 0.000000
RightUpLeg -86.956052 -9.341905 -8.895622
RightLeg -1.801133 -0.000000 0.000000
RightFoot 9.883898 -26.236996 0.997692
RightToeBase 28.858573 -0.000000 -0.000000
533
root 11.920416 33.081388 -21.597276 -191.755534 74.393050 -254.652985
Spine 66.632868 -12.942132 1.943437
Head -35.609472 -4.966167 7.647784
LeftShoulder -6.932730 -34.579967 22.162317
LeftArm -37.478945 -7.013264 -20.811420
LeftForeArm -38.455326 -0.000000 -5.333517
LeftHand -10.365080 -0.000000 0.383049
LeftHandThumb1 -26.253704 0.000000 33.147579
RightShoulder -10.703783 -1.148720 -12.590317
RightArm -41.164131 47.183794 13.721123
RightForeArm 15.840344 -0.000000 10.190942
RightHand -20.481372 -0.000000 -15.940067
RightHandThumb1 -24.326973 -0.000000 -32.862282
LeftUpLeg -38.853792 -13.430875 -18.056740
LeftLeg -15.085633 -0.000000 0.000000
LeftFoot -6.597359 29.274707 16.491114
LeftToeBase -139.679995 -0.000000 0.000000
RightUpLeg -86.792179 -9.273629 -8.913759
RightLeg -1.774402 -0.000000 0.000000
RightFoot 9.880670 -26.200961 0.976552
RightToeBase 28.837489 -0.000000 -0.000000
534
root 11.918344 33.081208 -21.606776 -191.980639 74.397582 -254.717909
Spine 66.603295 -12.913827 1.885532
Head -35.565291 -4.971994 7.706655
LeftShoulder -6.977081 -34.518286 22.204214
LeftArm -37.545183 -7.118708 -20.814801
LeftForeArm -38.509484 0.000000 -5.403413
LeftHand -10.376610 0.000000 0.380625
LeftHandThumb1 -26.253704 0.000000 33.147579
RightShoulder -10.680491 -1.180756 -12.582746
RightArm -41.147297 47.211097 13.786989
RightForeArm 16.027958 -0.000000 10.043862
RightHand -20.321594 0.000000 -15.824600
RightHandThumb1 -24.326973 -0.000000 -32.862282
LeftUpLeg -38.719401 -13.440561 -18.064969
LeftLeg -15.052284 -0.000000 0.000000
LeftFoot -6.598116 29.334963 16.542822
LeftToeBase -139.693039 -0.000000 0.000000
RightUpLeg -86.651351 -9.264823 -8.911774
RightLeg -1.770272 -0.000000 0.000000
RightFoot 9.911881 -26.185064 1.069156
RightToeBase 28.892148 -0.000000 -0.000000
